<svg width="142" height="52" viewBox="0 0 142 52" fill="none" xmlns="http://www.w3.org/2000/svg">
<path d="M122.938 10.0689V0.828433H97.2251L92.9964 31.6989L88.812 0.828583H79.5395L80.5782 9.06583C79.5072 6.95563 75.7109 0.828583 67.3564 0.828583C67.3013 0.824983 58.0712 0.828583 58.0712 0.828583L58.0356 45.8247L51.2771 0.828583L39.1332 0.821533L32.1414 47.4436L32.145 0.828284H20.5226L16.3326 27.016L12.2514 0.828583H0.625244V51.5145H9.78064V27.084L13.9452 51.5139H18.8126L22.9187 27.084V51.5139H40.5687L41.6397 43.7146H48.7458L49.8132 51.5139L67.1414 51.5245H67.1555V51.5139H67.1663H67.1771V35.0611L69.3014 34.7517L73.6992 51.5245H73.71H82.6515H82.662L82.6584 51.5139H82.6743H82.6851L76.9139 31.8553C79.8386 29.692 83.1408 24.1983 82.262 18.9427V18.9393C82.2725 19.0104 87.7094 51.5463 87.7094 51.5463L98.3691 51.5139L105.653 5.57128V51.514H122.938V42.3981H114.733V30.7737H122.938V21.519H114.733V10.0689H122.938ZM42.7182 35.677L45.2319 14.0079L47.8419 35.677H42.7182ZM69.3311 25.6714C68.6265 26.0131 67.8919 26.184 67.1767 26.184V9.88033C67.1891 9.88033 67.2035 9.87703 67.2212 9.87703C67.9382 9.87343 73.284 10.0939 73.284 17.9431C73.284 22.0491 71.4659 24.6361 69.3311 25.6714ZM141.385 42.391V51.5068H124.523V0.821533H133.602V42.391H141.385Z" fill="white"/>
</svg>
