<svg width="20" height="20" viewBox="0 0 20 20" fill="none" xmlns="http://www.w3.org/2000/svg">
<g clip-path="url(#clip0_8_641)">
<path d="M4.85749 3.77754C4.35749 4.89754 4.55499 6.90421 4.63499 8.30754C4.09499 8.60671 3.40166 8.08171 3.00916 8.08171C2.60082 8.08171 2.11332 8.35004 2.03666 8.75004C1.98166 9.03837 2.11082 9.45837 3.03749 9.82421C3.39582 9.96587 4.24832 10.1325 4.44582 10.5975C4.72332 11.2509 3.02082 14.2667 0.347491 14.7067C0.24656 14.7234 0.155349 14.7768 0.0913666 14.8566C0.0273845 14.9364 -0.0048594 15.0371 0.000824602 15.1392C0.0474913 15.9517 1.86916 16.27 2.67666 16.395C2.75916 16.5067 2.82582 16.9784 2.93166 17.3375C2.97916 17.4984 3.10166 17.6909 3.41666 17.6909C3.82749 17.6909 4.50999 17.3742 5.69832 17.5709C6.86332 17.765 7.95832 19.4167 10.0608 19.4167C12.015 19.4167 13.1808 17.7575 14.3025 17.5709C14.9517 17.4634 15.5092 17.4975 16.1325 17.6192C16.5617 17.7034 16.9467 17.75 17.0692 17.3284C17.1767 16.9642 17.2425 16.5017 17.3233 16.3925C18.1233 16.2684 19.9533 15.9509 19.9992 15.1384C20.0048 15.0362 19.9726 14.9356 19.9086 14.8558C19.8446 14.7759 19.7534 14.7226 19.6525 14.7059C17.0242 14.2725 15.27 11.2659 15.5542 10.5967C15.7508 10.1325 16.5975 9.96754 16.9625 9.82337C17.6408 9.55587 17.9808 9.22671 17.9733 8.84587C17.9642 8.35837 17.3775 8.06754 16.9458 8.06754C16.5067 8.06754 15.8758 8.58754 15.365 8.30587C15.445 6.89087 15.6417 4.89337 15.1425 3.77421C14.1967 1.65504 12.0925 0.583374 9.98916 0.583374C7.89916 0.583374 5.81082 1.64004 4.85749 3.77754Z" fill="white" fill-opacity="0.5"/>
</g>
<defs>
<clipPath id="clip0_8_641">
<rect width="20" height="20" fill="white"/>
</clipPath>
</defs>
</svg>
