<svg width="20" height="20" viewBox="0 0 20 20" fill="none" xmlns="http://www.w3.org/2000/svg">
<g clip-path="url(#clip0_8_647)">
<path d="M19.5833 5.42252C19.4701 5.01855 19.2495 4.65281 18.945 4.36419C18.6319 4.06669 18.2482 3.85389 17.83 3.74586C16.265 3.33336 9.995 3.33336 9.995 3.33336C7.3811 3.30362 4.76785 3.43442 2.17 3.72502C1.75182 3.84103 1.3688 4.05859 1.055 4.35836C0.746662 4.65502 0.523329 5.02086 0.406662 5.42169C0.126406 6.93148 -0.00976113 8.46448 -4.47943e-06 10C-0.0100045 11.5342 0.125829 13.0667 0.406662 14.5784C0.520829 14.9775 0.743329 15.3417 1.0525 15.6359C1.36166 15.93 1.74666 16.1425 2.17 16.255C3.75583 16.6667 9.995 16.6667 9.995 16.6667C12.6122 16.6965 15.2288 16.5657 17.83 16.275C18.2482 16.167 18.6319 15.9542 18.945 15.6567C19.2494 15.3681 19.4697 15.0023 19.5825 14.5984C19.8701 13.0892 20.0099 11.5555 20 10.0192C20.0216 8.47636 19.882 6.93549 19.5833 5.42169V5.42252ZM8.00166 12.8534V7.14752L13.2183 10.0009L8.00166 12.8534Z" fill="white" fill-opacity="0.5"/>
</g>
<defs>
<clipPath id="clip0_8_647">
<rect width="20" height="20" fill="white"/>
</clipPath>
</defs>
</svg>
